<?xml version="1.0" encoding="utf-8"?>
<svg width="320.5" height="133" viewBox="0 0 320.5 133" fill="none" xmlns="http://www.w3.org/2000/svg">
  <path d="M16.5 -0.00882375L16.5035 0.589603L16.5736 12.4999L45 12.4999Q45.0737 12.4999 45.147 12.5072Q45.2204 12.5144 45.2926 12.5288Q45.3649 12.5431 45.4354 12.5645Q45.5059 12.5859 45.574 12.6141Q45.6421 12.6423 45.7071 12.6771Q45.7721 12.7118 45.8334 12.7527Q45.8946 12.7937 45.9516 12.8404Q46.0086 12.8872 46.0607 12.9393Q46.1128 12.9914 46.1595 13.0484Q46.2063 13.1053 46.2472 13.1666Q46.2881 13.2279 46.3229 13.2929Q46.3576 13.3578 46.3858 13.4259Q46.414 13.494 46.4354 13.5645Q46.4568 13.635 46.4712 13.7073Q46.4856 13.7796 46.4928 13.8529Q46.5 13.9263 46.5 13.9999Q46.5 14.0736 46.4928 14.147Q46.4856 14.2203 46.4712 14.2926Q46.4568 14.3649 46.4354 14.4354Q46.414 14.5059 46.3858 14.574Q46.3576 14.6421 46.3229 14.707Q46.2881 14.772 46.2472 14.8333Q46.2063 14.8946 46.1595 14.9515Q46.1128 15.0085 46.0607 15.0606Q46.0086 15.1127 45.9516 15.1595Q45.8946 15.2062 45.8334 15.2471Q45.7721 15.2881 45.7071 15.3228Q45.6421 15.3576 45.574 15.3858Q45.5059 15.414 45.4354 15.4354Q45.3649 15.4567 45.2926 15.4711Q45.2204 15.4855 45.147 15.4927Q45.0737 15.4999 45 15.4999L16.5912 15.4999L17 84.9913Q16.928 91.9317 20.0607 95.0643Q23.217 98.2206 30.5284 98.5L266.175 98.4996L270 98.4996Q270.074 98.4996 270.147 98.5068Q270.22 98.5141 270.293 98.5284Q270.365 98.5428 270.435 98.5642Q270.506 98.5856 270.574 98.6138Q270.642 98.642 270.707 98.6767Q270.772 98.7114 270.833 98.7524Q270.895 98.7933 270.952 98.8401Q271.009 98.8868 271.061 98.9389Q271.113 98.991 271.16 99.048Q271.206 99.105 271.247 99.1662Q271.288 99.2275 271.323 99.2925Q271.358 99.3575 271.386 99.4256Q271.414 99.4937 271.435 99.5642Q271.457 99.6347 271.471 99.707Q271.486 99.7793 271.493 99.8526Q271.5 99.9259 271.5 99.9996Q271.5 100.073 271.493 100.147Q271.486 100.22 271.471 100.292Q271.457 100.365 271.435 100.435Q271.414 100.506 271.386 100.574Q271.358 100.642 271.323 100.707Q271.288 100.772 271.247 100.833Q271.206 100.894 271.16 100.951Q271.113 101.008 271.061 101.06Q271.009 101.112 270.952 101.159Q270.895 101.206 270.833 101.247Q270.772 101.288 270.707 101.322Q270.642 101.357 270.574 101.385Q270.506 101.414 270.435 101.435Q270.365 101.456 270.293 101.471Q270.22 101.485 270.147 101.492Q270.074 101.5 270 101.5L30.5002 101.5Q30.4721 101.5 30.444 101.499Q21.9342 101.18 17.9394 97.1857Q13.9151 93.1614 14 85.009L13.5912 15.4999L0 15.4999Q-0.0736903 15.4999 -0.147026 15.4927Q-0.220361 15.4855 -0.292635 15.4711Q-0.36491 15.4567 -0.435427 15.4354Q-0.505944 15.414 -0.574025 15.3858Q-0.642106 15.3576 -0.707095 15.3228Q-0.772084 15.2881 -0.833355 15.2471Q-0.894626 15.2062 -0.95159 15.1595Q-1.00855 15.1127 -1.06066 15.0606Q-1.11277 15.0085 -1.15952 14.9515Q-1.20626 14.8946 -1.2472 14.8333Q-1.28814 14.772 -1.32288 14.707Q-1.35762 14.6421 -1.38582 14.574Q-1.41402 14.5059 -1.43541 14.4354Q-1.4568 14.3649 -1.47118 14.2926Q-1.48555 14.2203 -1.49278 14.147Q-1.5 14.0736 -1.5 13.9999Q-1.5 13.9263 -1.49278 13.8529Q-1.48555 13.7796 -1.47118 13.7073Q-1.4568 13.635 -1.43541 13.5645Q-1.41402 13.494 -1.38582 13.4259Q-1.35762 13.3578 -1.32288 13.2929Q-1.28814 13.2279 -1.2472 13.1666Q-1.20626 13.1053 -1.15952 13.0484Q-1.11277 12.9914 -1.06066 12.9393Q-1.00855 12.8872 -0.95159 12.8404Q-0.894626 12.7937 -0.833355 12.7527Q-0.772084 12.7118 -0.707095 12.6771Q-0.642106 12.6423 -0.574025 12.6141Q-0.505944 12.5859 -0.435427 12.5645Q-0.36491 12.5431 -0.292635 12.5288Q-0.220361 12.5144 -0.147026 12.5072Q-0.0736903 12.4999 0 12.4999L13.5735 12.4999L13.5 0.00882375Q13.4996 -0.0648652 13.5064 -0.138242Q13.5132 -0.211619 13.5271 -0.283976Q13.5411 -0.356334 13.5621 -0.426976Q13.583 -0.497617 13.6108 -0.565863Q13.6386 -0.634109 13.673 -0.699301Q13.7073 -0.764493 13.7479 -0.826004Q13.7885 -0.887515 13.8349 -0.944753Q13.8813 -1.00199 13.9331 -1.0544Q13.9849 -1.10681 14.0416 -1.1539Q14.0983 -1.20098 14.1593 -1.24228Q14.2204 -1.28358 14.2851 -1.3187Q14.3499 -1.35382 14.4178 -1.38242Q14.4857 -1.41102 14.5561 -1.43282Q14.6265 -1.45463 14.6987 -1.46943Q14.7709 -1.48423 14.8442 -1.49189Q14.9175 -1.49954 14.9912 -1.49997Q15.1389 -1.50084 15.284 -1.47287Q15.429 -1.4449 15.5659 -1.38917Q15.7027 -1.33344 15.826 -1.25209Q15.9493 -1.17073 16.0544 -1.06688Q16.1595 -0.963032 16.2423 -0.840678Q16.3251 -0.718324 16.3824 -0.582168Q16.4398 -0.446011 16.4694 -0.301285Q16.4991 -0.156558 16.5 -0.00882375ZM151.001 84.9997L151.001 0Q151.001 -0.0984914 150.982 -0.19509Q150.963 -0.291689 150.925 -0.382683Q150.888 -0.473678 150.833 -0.55557Q150.778 -0.637463 150.709 -0.707107Q150.639 -0.776751 150.557 -0.831469Q150.475 -0.886188 150.384 -0.923879Q150.293 -0.961571 150.197 -0.980785Q150.1 -1 150.001 -1Q149.903 -1 149.806 -0.980785Q149.71 -0.96157 149.619 -0.923879Q149.528 -0.886188 149.446 -0.83147Q149.364 -0.776751 149.294 -0.707107Q149.225 -0.637463 149.17 -0.55557Q149.115 -0.473678 149.078 -0.382683Q149.04 -0.291689 149.021 -0.19509Q149.001 -0.0984914 149.001 0L149.001 84.9997Q149.001 85.0982 149.021 85.1948Q149.04 85.2914 149.078 85.3824Q149.115 85.4734 149.17 85.5553Q149.225 85.6371 149.294 85.7068Q149.364 85.7764 149.446 85.8312Q149.528 85.8859 149.619 85.9236Q149.71 85.9613 149.806 85.9805Q149.903 85.9997 150.001 85.9997Q150.1 85.9997 150.197 85.9805Q150.293 85.9613 150.384 85.9236Q150.475 85.8859 150.557 85.8312Q150.639 85.7764 150.709 85.7068Q150.778 85.6372 150.833 85.5553Q150.888 85.4734 150.925 85.3824Q150.963 85.2914 150.982 85.1948Q151.001 85.0982 151.001 84.9997ZM278.5 55.0219L278.5 133Q278.5 133.074 278.507 133.147Q278.515 133.22 278.529 133.293Q278.543 133.365 278.565 133.435Q278.586 133.506 278.614 133.574Q278.642 133.642 278.677 133.707Q278.712 133.772 278.753 133.833Q278.794 133.895 278.841 133.952Q278.887 134.009 278.939 134.061Q278.992 134.113 279.049 134.16Q279.105 134.206 279.167 134.247Q279.228 134.288 279.293 134.323Q279.358 134.358 279.426 134.386Q279.494 134.414 279.565 134.435Q279.635 134.457 279.707 134.471Q279.78 134.486 279.853 134.493Q279.926 134.5 280 134.5Q280.074 134.5 280.147 134.493Q280.22 134.486 280.293 134.471Q280.365 134.457 280.436 134.435Q280.506 134.414 280.574 134.386Q280.642 134.358 280.707 134.323Q280.772 134.288 280.833 134.247Q280.895 134.206 280.952 134.16Q281.009 134.113 281.061 134.061Q281.113 134.009 281.16 133.952Q281.206 133.895 281.247 133.833Q281.288 133.772 281.323 133.707Q281.358 133.642 281.386 133.574Q281.414 133.506 281.435 133.435Q281.457 133.365 281.471 133.293Q281.486 133.22 281.493 133.147Q281.5 133.074 281.5 133L281.5 54.9999Q281.5 54.9778 281.499 54.9557Q281.424 52.3816 282.02 48.9191Q283.199 42.0745 286.472 37.9432Q289.687 33.886 295.15 32.2867Q297.898 31.4822 299.935 31.4998L318.5 31.4999L318.5 59.9998Q318.4 70.4017 313.994 76.862Q311.396 80.6708 305.486 82.2168Q302.449 83.0112 300.001 83.0015L289.5 83.0015Q289.427 83.0015 289.353 83.0087Q289.28 83.0159 289.208 83.0303Q289.135 83.0447 289.065 83.0661Q288.994 83.0875 288.926 83.1157Q288.858 83.1439 288.793 83.1786Q288.728 83.2133 288.667 83.2543Q288.606 83.2952 288.549 83.342Q288.492 83.3887 288.44 83.4408Q288.387 83.4929 288.341 83.5499Q288.294 83.6069 288.253 83.6681Q288.212 83.7294 288.177 83.7944Q288.143 83.8594 288.114 83.9275Q288.086 83.9955 288.065 84.0661Q288.043 84.1366 288.029 84.2088Q288.015 84.2811 288.007 84.3545Q288 84.4278 288 84.5015Q288 84.6309 288.022 84.7585Q288.045 84.886 288.088 85.0079Q288.132 85.1297 288.196 85.2423Q288.26 85.3548 288.342 85.4548Q288.424 85.5547 288.523 85.6391Q288.621 85.7235 288.732 85.7898Q288.843 85.8561 288.964 85.9023Q289.085 85.9486 289.212 85.9735Q289.355 86.0015 289.5 86.0015L299.99 86.0015Q302.829 86.0127 306.245 85.1191Q313.241 83.2889 316.472 78.5525Q321.392 71.3404 321.5 59.9998L321.5 29.9999Q321.5 29.9262 321.493 29.8529Q321.486 29.7795 321.471 29.7073Q321.457 29.635 321.436 29.5645Q321.414 29.4939 321.386 29.4259Q321.358 29.3578 321.323 29.2928Q321.288 29.2278 321.247 29.1665Q321.206 29.1053 321.16 29.0483Q321.113 28.9913 321.061 28.9392Q321.009 28.8871 320.952 28.8404Q320.895 28.7936 320.833 28.7527Q320.772 28.7117 320.707 28.677Q320.642 28.6423 320.574 28.6141Q320.506 28.5859 320.436 28.5645Q320.365 28.5431 320.293 28.5287Q320.22 28.5143 320.147 28.5071Q320.074 28.4999 320 28.4999L299.961 28.4999Q297.481 28.4785 294.308 29.4075Q287.928 31.275 284.121 36.0802Q280.372 40.8112 279.064 48.4099Q278.419 52.1546 278.5 55.0219ZM207.658 37.9687Q207.782 38.0493 207.924 38.0904Q208.115 38.1457 208.313 38.1237Q208.511 38.1017 208.685 38.0057Q208.771 37.9581 208.846 37.8947Q208.922 37.8312 208.983 37.7543Q209.045 37.6774 209.09 37.5899Q209.135 37.5025 209.163 37.4079Q209.19 37.3133 209.198 37.2151Q209.207 37.117 209.196 37.0191Q209.185 36.9212 209.155 36.8274Q209.125 36.7335 209.078 36.6472Q208.016 34.7196 205.936 32.8256Q201.736 28.9999 196.476 28.9999Q189.541 28.9999 185.57 35.001Q181.265 41.5089 185.182 49.4793Q186.977 53.1329 190.581 55.2302Q192.169 56.1546 195.177 57.2009Q196.14 57.5361 197.249 57.8839Q201.9 59.3422 203.798 60.5802Q206.842 62.5661 207.997 66.2598Q210.502 74.2689 206.966 79.2657Q203.616 83.9996 196.476 83.9997Q190.819 83.9997 187.35 79.1329Q185.576 76.6447 184.971 74.184Q184.926 73.9987 184.815 73.8433Q184.704 73.6878 184.544 73.5839Q184.531 73.5754 184.518 73.5674Q184.348 73.4643 184.151 73.4343Q183.955 73.4042 183.761 73.4517Q183.666 73.4752 183.576 73.5169Q183.487 73.5586 183.408 73.6169Q183.328 73.6752 183.262 73.7479Q183.196 73.8206 183.145 73.9048Q183.094 73.9891 183.06 74.0817Q183.026 74.1743 183.011 74.2716Q182.997 74.369 183.001 74.4674Q183.005 74.5658 183.029 74.6614Q183.725 77.494 185.721 80.2938Q189.789 85.9997 196.476 85.9997Q204.65 85.9996 208.598 80.4211Q212.706 74.6165 209.906 65.6628Q208.536 61.2835 204.89 58.905Q202.762 57.5164 197.847 55.9755Q197.05 55.7256 196.307 55.4583Q189.069 52.8534 186.977 48.5972Q183.565 41.656 187.238 36.1045Q190.615 30.9999 196.476 30.9999Q200.962 30.9999 204.59 34.3041Q206.424 35.9751 207.326 37.6125Q207.447 37.8321 207.658 37.9687ZM113.001 29.9999Q113.001 29.9014 113.021 29.8048Q113.04 29.7082 113.078 29.6172Q113.115 29.5262 113.17 29.4443Q113.225 29.3624 113.294 29.2928Q113.364 29.2231 113.446 29.1684Q113.528 29.1137 113.619 29.076Q113.71 29.0383 113.806 29.0191Q113.903 28.9999 114.001 28.9999Q114.1 28.9999 114.197 29.0191Q114.293 29.0383 114.384 29.076Q114.475 29.1137 114.557 29.1684Q114.639 29.2231 114.709 29.2928Q114.778 29.3624 114.833 29.4443Q114.888 29.5262 114.925 29.6172Q114.963 29.7082 114.982 29.8048Q115.001 29.9014 115.001 29.9999L115.001 84.9987Q115.001 85.0972 114.982 85.1938Q114.963 85.2904 114.925 85.3814Q114.888 85.4724 114.833 85.5543Q114.778 85.6362 114.709 85.7058Q114.639 85.7754 114.557 85.8302Q114.475 85.8849 114.384 85.9226Q114.293 85.9603 114.197 85.9795Q114.1 85.9987 114.001 85.9987Q113.903 85.9987 113.806 85.9795Q113.71 85.9603 113.619 85.9226Q113.528 85.8849 113.446 85.8302Q113.364 85.7754 113.294 85.7058Q113.225 85.6362 113.17 85.5543Q113.115 85.4724 113.078 85.3814Q113.04 85.2904 113.021 85.1938Q113.001 85.0972 113.001 84.9987L113.001 29.9999ZM244 28.9999Q243.901 28.9999 243.805 29.0191Q243.708 29.0383 243.617 29.076Q243.526 29.1137 243.444 29.1684Q243.363 29.2231 243.293 29.2928Q243.223 29.3624 243.169 29.4443Q243.114 29.5262 243.076 29.6172Q243.038 29.7082 243.019 29.8048Q243 29.9014 243 29.9999L243 84.9987Q243 85.0972 243.019 85.1938Q243.038 85.2904 243.076 85.3814Q243.114 85.4724 243.169 85.5543Q243.223 85.6362 243.293 85.7058Q243.363 85.7754 243.444 85.8302Q243.526 85.8849 243.617 85.9226Q243.708 85.9603 243.805 85.9795Q243.901 85.9987 244 85.9987Q244.098 85.9987 244.195 85.9795Q244.292 85.9603 244.383 85.9226Q244.474 85.8849 244.556 85.8302Q244.637 85.7754 244.707 85.7058Q244.777 85.6362 244.831 85.5543Q244.886 85.4724 244.924 85.3814Q244.962 85.2904 244.981 85.1938Q245 85.0972 245 84.9987L245 29.9999Q245 29.9014 244.981 29.8048Q244.962 29.7082 244.924 29.6172Q244.886 29.5262 244.831 29.4443Q244.777 29.3624 244.707 29.2928Q244.637 29.2231 244.556 29.1684Q244.474 29.1137 244.383 29.076Q244.292 29.0383 244.195 29.0191Q244.098 28.9999 244 28.9999ZM53.1095 60.2248L44.0623 84.6524Q43.9932 84.839 44.0007 85.0377Q44.0083 85.2365 44.0913 85.4172Q44.1744 85.598 44.3203 85.7332Q44.4662 85.8684 44.6527 85.9375Q44.745 85.9717 44.8423 85.9872Q44.9396 86.0027 45.038 85.999Q45.1364 85.9953 45.2322 85.9724Q45.328 85.9495 45.4175 85.9084Q45.507 85.8673 45.5867 85.8095Q45.6665 85.7517 45.7334 85.6795Q45.8004 85.6072 45.852 85.5233Q45.9035 85.4394 45.9377 85.347L46.0664 84.9997L54.9553 60.9998L75.0458 61L83.9355 84.9998L84.0641 85.3471Q84.0983 85.4395 84.1499 85.5234Q84.2015 85.6073 84.2684 85.6796Q84.3354 85.7518 84.4151 85.8096Q84.4949 85.8674 84.5844 85.9085Q84.6739 85.9496 84.7697 85.9725Q84.8655 85.9953 84.9639 85.9991Q85.0623 86.0028 85.1596 85.9873Q85.2568 85.9717 85.3492 85.9375Q85.4416 85.9033 85.5255 85.8517Q85.6094 85.8002 85.6816 85.7332Q85.7538 85.6663 85.8116 85.5865Q85.8694 85.5068 85.9105 85.4173Q85.9517 85.3278 85.9745 85.232Q85.9974 85.1362 86.0011 85.0378Q86.0049 84.9393 85.9893 84.8421Q85.9738 84.7448 85.9396 84.6525L76.8683 60.1621Q76.8815 60.0816 76.8815 60Q76.8815 59.8905 76.8578 59.7836Q76.8341 59.6767 76.7879 59.5775Q76.7416 59.4783 76.675 59.3914Q76.6084 59.3045 76.5245 59.2341L65.9378 30.6525Q65.9002 30.5512 65.8419 30.4602Q65.7835 30.3692 65.7071 30.2928Q65.6307 30.2163 65.5397 30.158Q65.4487 30.0997 65.3473 30.0621Q65.255 30.0279 65.1577 30.0124Q65.0604 29.9969 64.962 30.0006Q64.8636 30.0043 64.7678 30.0272Q64.672 30.0501 64.5825 30.0912Q64.493 30.1323 64.4133 30.1901Q64.3335 30.2479 64.2665 30.3201Q64.1996 30.3924 64.148 30.4763Q64.0965 30.5602 64.0623 30.6526L53.4912 59.1944Q53.3965 59.2641 53.3205 59.3538Q53.2446 59.4436 53.1915 59.5485Q53.1385 59.6535 53.1112 59.7678Q53.0839 59.8822 53.0839 59.9998Q53.0839 60.1138 53.1095 60.2248ZM55.696 58.9998L65.0001 33.879L74.305 59L55.696 58.9998ZM290.831 70.5558L310.871 40.598Q310.926 40.5161 310.964 40.4251Q311.002 40.3342 311.021 40.2376Q311.04 40.141 311.04 40.0425Q311.04 39.944 311.021 39.8474Q311.002 39.7508 310.964 39.6598Q310.927 39.5687 310.872 39.4868Q310.817 39.4049 310.748 39.3352Q310.678 39.2655 310.596 39.2108Q310.431 39.1002 310.236 39.0613Q310.041 39.0224 309.846 39.0611Q309.651 39.0998 309.485 39.2102Q309.32 39.3206 309.209 39.4859L289.169 69.4437Q289.114 69.5256 289.076 69.6166Q289.039 69.7075 289.019 69.8041Q289 69.9007 289 69.9992Q289 70.0977 289.019 70.1943Q289.038 70.2909 289.076 70.3819Q289.114 70.4729 289.168 70.5549Q289.223 70.6368 289.292 70.7065Q289.362 70.7761 289.444 70.8309Q289.609 70.9415 289.804 70.9804Q289.999 71.0193 290.195 70.9806Q290.39 70.9419 290.555 70.8315Q290.721 70.7211 290.831 70.5558ZM317.5 84.9996C317.5 85.828 318.172 86.4996 319 86.4996C319.828 86.4996 320.5 85.828 320.5 84.9996C320.5 84.1712 319.828 83.4996 319 83.4996C318.172 83.4996 317.5 84.1712 317.5 84.9996ZM290 101.5L318 101.5Q318.074 101.5 318.147 101.492Q318.22 101.485 318.293 101.471Q318.365 101.456 318.435 101.435Q318.506 101.414 318.574 101.385Q318.642 101.357 318.707 101.323Q318.772 101.288 318.833 101.247Q318.895 101.206 318.952 101.159Q319.009 101.112 319.061 101.06Q319.113 101.008 319.16 100.951Q319.206 100.894 319.247 100.833Q319.288 100.772 319.323 100.707Q319.358 100.642 319.386 100.574Q319.414 100.506 319.435 100.435Q319.457 100.365 319.471 100.292Q319.486 100.22 319.493 100.147Q319.5 100.073 319.5 99.9996Q319.5 99.9259 319.493 99.8526Q319.486 99.7793 319.471 99.707Q319.457 99.6347 319.435 99.5642Q319.414 99.4937 319.386 99.4256Q319.358 99.3575 319.323 99.2925Q319.288 99.2275 319.247 99.1663Q319.206 99.105 319.16 99.048Q319.113 98.9911 319.061 98.9389Q319.009 98.8868 318.952 98.8401Q318.895 98.7934 318.833 98.7524Q318.772 98.7115 318.707 98.6767Q318.642 98.642 318.574 98.6138Q318.506 98.5856 318.435 98.5642Q318.365 98.5428 318.293 98.5284Q318.22 98.5141 318.147 98.5069Q318.074 98.4996 318 98.4996L290 98.4996Q289.926 98.4996 289.853 98.5069Q289.78 98.5141 289.707 98.5284Q289.635 98.5428 289.565 98.5642Q289.494 98.5856 289.426 98.6138Q289.358 98.642 289.293 98.6767Q289.228 98.7115 289.167 98.7524Q289.105 98.7934 289.048 98.8401Q288.991 98.8869 288.939 98.939Q288.887 98.9911 288.84 99.048Q288.794 99.105 288.753 99.1663Q288.712 99.2275 288.677 99.2925Q288.642 99.3575 288.614 99.4256Q288.586 99.4937 288.565 99.5642Q288.543 99.6347 288.529 99.707Q288.514 99.7793 288.507 99.8526Q288.5 99.9259 288.5 99.9996Q288.5 100.073 288.507 100.147Q288.514 100.22 288.529 100.292Q288.543 100.365 288.565 100.435Q288.586 100.506 288.614 100.574Q288.642 100.642 288.677 100.707Q288.712 100.772 288.753 100.833Q288.794 100.894 288.84 100.951Q288.887 101.008 288.939 101.06Q288.991 101.112 289.048 101.159Q289.105 101.206 289.167 101.247Q289.228 101.288 289.293 101.322Q289.358 101.357 289.426 101.385Q289.494 101.414 289.565 101.435Q289.635 101.456 289.707 101.471Q289.78 101.485 289.853 101.492Q289.926 101.5 290 101.5ZM318 111L290 111Q289.901 111 289.805 110.98Q289.708 110.961 289.617 110.923Q289.526 110.886 289.444 110.831Q289.362 110.776 289.293 110.707Q289.223 110.637 289.168 110.555Q289.114 110.473 289.076 110.382Q289.038 110.291 289.019 110.195Q289 110.098 289 110Q289 109.901 289.019 109.804Q289.038 109.708 289.076 109.617Q289.114 109.526 289.169 109.444Q289.223 109.362 289.293 109.292Q289.363 109.223 289.444 109.168Q289.526 109.113 289.617 109.076Q289.708 109.038 289.805 109.019Q289.901 109 290 109L318 109Q318.098 109 318.195 109.019Q318.292 109.038 318.383 109.076Q318.474 109.113 318.556 109.168Q318.637 109.223 318.707 109.292Q318.777 109.362 318.831 109.444Q318.886 109.526 318.924 109.617Q318.962 109.708 318.981 109.804Q319 109.901 319 110Q319 110.098 318.981 110.195Q318.962 110.291 318.924 110.382Q318.886 110.473 318.831 110.555Q318.777 110.637 318.707 110.707Q318.637 110.776 318.556 110.831Q318.474 110.886 318.383 110.923Q318.292 110.961 318.195 110.98Q318.098 111 318 111Z" fill="#000000" fill-rule="evenodd" />
</svg>