<?xml version="1.0" encoding="utf-8"?>
<svg width="43.009" height="106.001" viewBox="0 0 43.009 106.001" fill="none" xmlns="http://www.w3.org/2000/svg">
  <path d="M0.00914526 26.5222L0.00914526 104.501Q0.00914526 104.575 0.0163682 104.648Q0.0235911 104.721 0.0379673 104.794Q0.0523436 104.866 0.0737347 104.936Q0.0951259 105.007 0.123326 105.075Q0.151526 105.143 0.186263 105.208Q0.221001 105.273 0.261941 105.334Q0.302881 105.396 0.34963 105.453Q0.396378 105.51 0.448485 105.562Q0.500592 105.614 0.557555 105.66Q0.614519 105.707 0.67579 105.748Q0.737061 105.789 0.80205 105.824Q0.867039 105.859 0.93512 105.887Q1.0032 105.915 1.07372 105.936Q1.14424 105.958 1.21651 105.972Q1.28878 105.987 1.36212 105.994Q1.43545 106.001 1.50915 106.001Q1.58284 106.001 1.65617 105.994Q1.72951 105.987 1.80178 105.972Q1.87406 105.958 1.94457 105.936Q2.01509 105.915 2.08317 105.887Q2.15125 105.859 2.21624 105.824Q2.28123 105.789 2.3425 105.748Q2.40377 105.707 2.46074 105.66Q2.5177 105.614 2.56981 105.562Q2.62191 105.509 2.66866 105.453Q2.71541 105.396 2.75635 105.334Q2.79729 105.273 2.83203 105.208Q2.86676 105.143 2.89496 105.075Q2.92316 105.007 2.94456 104.936Q2.96595 104.866 2.98032 104.794Q2.9947 104.721 3.00192 104.648Q3.00915 104.575 3.00915 104.501L3.00915 26.5005Q3.00915 26.4784 3.00849 26.4564Q2.93267 23.8822 3.52906 20.4197Q4.70799 13.5751 7.98136 9.4438Q11.196 5.38659 16.6594 3.78721Q19.4073 2.98277 21.4441 3.00037L40.0091 3.00043L40.0091 31.5005Q39.9093 41.9025 35.5027 48.3628Q32.9055 52.1705 26.9979 53.7168Q23.9611 54.5116 21.5104 54.5023L21.5102 54.5023L11.0092 54.5023Q10.8615 54.5023 10.7166 54.5311Q10.5717 54.5599 10.4352 54.6164Q10.2987 54.673 10.1759 54.755Q10.053 54.8371 9.94858 54.9416Q9.84411 55.0461 9.76204 55.1689Q9.67996 55.2917 9.62342 55.4282Q9.56688 55.5647 9.53806 55.7096Q9.50924 55.8545 9.50924 56.0022Q9.50924 56.1317 9.53141 56.2592Q9.55359 56.3868 9.59729 56.5086Q9.64099 56.6305 9.70491 56.743Q9.76884 56.8556 9.85111 56.9555Q9.93337 57.0555 10.0315 57.1398Q10.1297 57.2242 10.2409 57.2905Q10.3521 57.3568 10.473 57.4031Q10.5939 57.4494 10.7209 57.4743Q10.8637 57.5023 11.0092 57.5023L21.4985 57.5023L21.4987 57.5023Q24.3414 57.5132 27.7576 56.619Q34.7512 54.7885 37.9811 50.0532Q42.9004 42.8412 43.0091 31.5005L43.0091 1.50043Q43.0091 1.42674 43.0019 1.35341Q42.9947 1.28007 42.9803 1.2078Q42.9659 1.13552 42.9445 1.065Q42.9231 0.994487 42.895 0.926406Q42.8668 0.858325 42.832 0.793336Q42.7973 0.728347 42.7563 0.667076Q42.7154 0.605805 42.6686 0.548842Q42.6219 0.491878 42.5698 0.439771Q42.5177 0.387664 42.4607 0.340916Q42.4038 0.294167 42.3425 0.253227Q42.2812 0.212287 42.2162 0.17755Q42.1512 0.142812 42.0832 0.114612Q42.0151 0.0864121 41.9446 0.065021Q41.874 0.0436298 41.8018 0.0292535Q41.7295 0.0148773 41.6562 0.00765435Q41.5828 0.00043143 41.5091 0.000431418L21.4701 0.000483274Q18.9899 -0.0209545 15.8165 0.908042Q9.4373 2.77554 5.62998 7.58074Q1.88141 12.3118 0.572594 19.9105Q-0.0723637 23.655 0.00914526 26.5222ZM12.3402 42.0564L32.3805 12.0985Q32.4352 12.0167 32.473 11.9257Q32.5107 11.8347 32.53 11.7381Q32.5492 11.6415 32.5493 11.5431Q32.5493 11.4446 32.5302 11.348Q32.511 11.2513 32.4734 11.1603Q32.4357 11.0693 32.3811 10.9874Q32.3264 10.9055 32.2568 10.8358Q32.1872 10.7661 32.1053 10.7114Q32.0234 10.6566 31.9325 10.6189Q31.8415 10.5811 31.7449 10.5618Q31.6483 10.5426 31.5498 10.5425Q31.4513 10.5425 31.3547 10.5616Q31.2581 10.5808 31.1671 10.6184Q31.0761 10.6561 30.9942 10.7108Q30.9122 10.7654 30.8426 10.835Q30.7729 10.9047 30.7181 10.9865L10.6779 40.9444Q10.5673 41.1098 10.5284 41.3048Q10.4895 41.4999 10.5282 41.695Q10.5669 41.8901 10.6773 42.0556Q10.7877 42.221 10.9531 42.3316Q11.0349 42.3864 11.1259 42.4241Q11.2169 42.4618 11.3135 42.4811Q11.41 42.5004 11.5085 42.5004Q11.607 42.5005 11.7036 42.4813Q11.8002 42.4622 11.8913 42.4245Q11.9823 42.3869 12.0642 42.3322Q12.1461 42.2775 12.2158 42.2079Q12.2855 42.1383 12.3402 42.0564ZM40.509 58.0004C39.6806 58.0004 39.0091 57.3288 39.0091 56.5004C39.0091 55.672 39.6806 55.0004 40.509 55.0004C41.3375 55.0004 42.0091 55.672 42.0091 56.5004C42.0091 57.3288 41.3375 58.0004 40.509 58.0004ZM39.5091 73.0004L11.5091 73.0004Q11.4354 73.0004 11.362 72.9932Q11.2887 72.986 11.2164 72.9716Q11.1442 72.9572 11.0736 72.9358Q11.0031 72.9144 10.935 72.8862Q10.867 72.858 10.802 72.8233Q10.737 72.7886 10.6757 72.7476Q10.6144 72.7067 10.5575 72.6599Q10.5005 72.6132 10.4484 72.5611Q10.3963 72.509 10.3495 72.452Q10.3028 72.3951 10.2619 72.3338Q10.2209 72.2725 10.1862 72.2075Q10.1514 72.1425 10.1232 72.0744Q10.095 72.0064 10.0737 71.9359Q10.0523 71.8653 10.0379 71.7931Q10.0235 71.7208 10.0163 71.6475Q10.0091 71.5741 10.0091 71.5004Q10.0091 71.4267 10.0163 71.3534Q10.0235 71.2801 10.0379 71.2078Q10.0523 71.1355 10.0737 71.065Q10.095 70.9945 10.1232 70.9264Q10.1514 70.8583 10.1862 70.7933Q10.2209 70.7283 10.2619 70.6671Q10.3028 70.6058 10.3495 70.5488Q10.3963 70.4919 10.4484 70.4398Q10.5005 70.3877 10.5575 70.3409Q10.6144 70.2942 10.6757 70.2532Q10.737 70.2123 10.802 70.1776Q10.867 70.1428 10.935 70.1146Q11.0031 70.0864 11.0736 70.065Q11.1442 70.0436 11.2164 70.0293Q11.2887 70.0149 11.362 70.0077Q11.4354 70.0004 11.5091 70.0004L39.5091 70.0004Q39.5828 70.0004 39.6561 70.0077Q39.7294 70.0149 39.8017 70.0293Q39.874 70.0436 39.9445 70.065Q40.015 70.0864 40.0831 70.1146Q40.1512 70.1428 40.2162 70.1776Q40.2811 70.2123 40.3424 70.2532Q40.4037 70.2942 40.4607 70.3409Q40.5176 70.3877 40.5697 70.4398Q40.6218 70.4919 40.6686 70.5488Q40.7153 70.6058 40.7563 70.6671Q40.7972 70.7283 40.8319 70.7933Q40.8667 70.8583 40.8949 70.9264Q40.9231 70.9945 40.9445 71.065Q40.9659 71.1355 40.9802 71.2078Q40.9946 71.2801 41.0018 71.3534Q41.0091 71.4267 41.0091 71.5004Q41.0091 71.5741 41.0018 71.6475Q40.9946 71.7208 40.9802 71.7931Q40.9659 71.8653 40.9445 71.9359Q40.9231 72.0064 40.8949 72.0744Q40.8667 72.1425 40.8319 72.2075Q40.7972 72.2725 40.7563 72.3338Q40.7153 72.3951 40.6686 72.452Q40.6218 72.509 40.5697 72.5611Q40.5176 72.6132 40.4607 72.6599Q40.4037 72.7067 40.3424 72.7476Q40.2811 72.7886 40.2162 72.8233Q40.1512 72.858 40.0831 72.8862Q40.015 72.9144 39.9445 72.9358Q39.874 72.9572 39.8017 72.9716Q39.7294 72.986 39.6561 72.9932Q39.5828 73.0004 39.5091 73.0004ZM11.5091 82.5004L39.5091 82.5004Q39.6076 82.5004 39.7042 82.4812Q39.8008 82.462 39.8917 82.4243Q39.9827 82.3866 40.0646 82.3319Q40.1465 82.2772 40.2162 82.2075Q40.2858 82.1379 40.3405 82.056Q40.3952 81.9741 40.4329 81.8831Q40.4706 81.7921 40.4898 81.6955Q40.5091 81.5989 40.5091 81.5004Q40.5091 81.4019 40.4898 81.3053Q40.4706 81.2087 40.4329 81.1177Q40.3952 81.0267 40.3405 80.9448Q40.2858 80.863 40.2162 80.7933Q40.1465 80.7237 40.0646 80.669Q39.9827 80.6142 39.8917 80.5765Q39.8008 80.5389 39.7042 80.5196Q39.6076 80.5004 39.5091 80.5004L11.5091 80.5004Q11.4106 80.5004 11.314 80.5196Q11.2174 80.5389 11.1264 80.5765Q11.0354 80.6142 10.9535 80.669Q10.8716 80.7237 10.802 80.7933Q10.7323 80.863 10.6776 80.9448Q10.6229 81.0267 10.5852 81.1177Q10.5475 81.2087 10.5283 81.3053Q10.5091 81.4019 10.5091 81.5004Q10.5091 81.5989 10.5283 81.6955Q10.5475 81.7921 10.5852 81.8831Q10.6229 81.9741 10.6776 82.056Q10.7323 82.1379 10.802 82.2075Q10.8716 82.2772 10.9535 82.3319Q11.0354 82.3866 11.1264 82.4243Q11.2174 82.462 11.314 82.4812Q11.4106 82.5004 11.5091 82.5004Z" fill="#000000" fill-rule="evenodd" transform="translate(-0 -0)" />
</svg>