<?xml version="1.0" encoding="utf-8"?>
<svg width="123" height="136.001" viewBox="0 0 123 136.001" fill="none" xmlns="http://www.w3.org/2000/svg">
  <path d="M18 1.49118L18.0166 4.322L18.0736 14L46.5 14Q46.5737 14 46.647 14.0072Q46.7204 14.0144 46.7926 14.0288Q46.8649 14.0432 46.9354 14.0646Q47.0059 14.086 47.074 14.1142Q47.1421 14.1424 47.2071 14.1771Q47.2721 14.2119 47.3334 14.2528Q47.3946 14.2937 47.4516 14.3405Q47.5086 14.3872 47.5607 14.4393Q47.6128 14.4914 47.6595 14.5484Q47.7063 14.6054 47.7472 14.6666Q47.7881 14.7279 47.8229 14.7929Q47.8576 14.8579 47.8858 14.926Q47.914 14.9941 47.9354 15.0646Q47.9568 15.1351 47.9712 15.2074Q47.9856 15.2796 47.9928 15.353Q48 15.4263 48 15.5Q48 15.5737 47.9928 15.647Q47.9856 15.7204 47.9712 15.7926Q47.9568 15.8649 47.9354 15.9354Q47.914 16.0059 47.8858 16.074Q47.8576 16.1421 47.8229 16.2071Q47.7881 16.2721 47.7472 16.3334Q47.7063 16.3946 47.6595 16.4516Q47.6128 16.5086 47.5607 16.5607Q47.5086 16.6128 47.4516 16.6595Q47.3946 16.7063 47.3334 16.7472Q47.2721 16.7881 47.2071 16.8229Q47.1421 16.8576 47.074 16.8858Q47.0059 16.914 46.9354 16.9354Q46.8649 16.9568 46.7926 16.9712Q46.7204 16.9856 46.647 16.9928Q46.5737 17 46.5 17L18.0912 17L18.5 86.4917Q18.428 93.4322 21.5607 96.5648Q24.717 99.7211 32.0284 100.001L69.4367 100L70.2429 100Q70.3165 100 70.3899 100.007Q70.4632 100.014 70.5355 100.029Q70.6078 100.043 70.6783 100.065Q70.7488 100.086 70.8169 100.114Q70.8849 100.142 70.9499 100.177Q71.0149 100.212 71.0762 100.253Q71.1375 100.294 71.1944 100.34Q71.2514 100.387 71.3035 100.439Q71.3556 100.491 71.4024 100.548Q71.4491 100.605 71.4901 100.667Q71.531 100.728 71.5657 100.793Q71.6005 100.858 71.6287 100.926Q71.6569 100.994 71.6783 101.065Q71.6997 101.135 71.714 101.207Q71.7284 101.28 71.7356 101.353Q71.7429 101.426 71.7429 101.5Q71.7429 101.574 71.7357 101.647Q71.7284 101.72 71.7141 101.793Q71.6997 101.865 71.6783 101.935Q71.6569 102.006 71.6287 102.074Q71.6005 102.142 71.5658 102.207Q71.531 102.272 71.4901 102.333Q71.4492 102.395 71.4024 102.452Q71.3557 102.509 71.3036 102.561Q71.2514 102.613 71.1945 102.659Q71.1375 102.706 71.0762 102.747Q71.015 102.788 70.95 102.823Q70.885 102.858 70.8169 102.886Q70.7488 102.914 70.6783 102.935Q70.6078 102.957 70.5355 102.971Q70.4633 102.986 70.3899 102.993Q70.3166 103 70.2429 103L32.0002 103.001Q31.9721 103.001 31.9441 102.999Q23.4342 102.681 19.4394 98.6862Q15.4151 94.6619 15.5 86.5093L15.0912 17L1.5 17Q1.42631 17 1.35297 16.9928Q1.27964 16.9856 1.20736 16.9712Q1.13509 16.9568 1.06457 16.9354Q0.994056 16.914 0.925975 16.8858Q0.857894 16.8576 0.792905 16.8229Q0.727916 16.7881 0.666645 16.7472Q0.605373 16.7063 0.54841 16.6595Q0.491447 16.6128 0.43934 16.5607Q0.387233 16.5086 0.340484 16.4516Q0.293736 16.3946 0.252796 16.3334Q0.211855 16.2721 0.177118 16.2071Q0.142381 16.1421 0.114181 16.074Q0.0859807 16.0059 0.0645895 15.9354Q0.0431983 15.8649 0.0288221 15.7926Q0.0144458 15.7204 0.00722291 15.647Q0 15.5737 0 15.5Q0 15.4263 0.00722291 15.353Q0.0144458 15.2796 0.0288221 15.2074Q0.0431983 15.1351 0.0645895 15.0646Q0.0859807 14.9941 0.114181 14.926Q0.142381 14.8579 0.177118 14.7929Q0.211855 14.7279 0.252796 14.6666Q0.293736 14.6054 0.340484 14.5484Q0.387233 14.4914 0.43934 14.4393Q0.491447 14.3872 0.54841 14.3405Q0.605373 14.2937 0.666645 14.2528Q0.727916 14.2119 0.792905 14.1771Q0.857894 14.1424 0.925975 14.1142Q0.994056 14.086 1.06457 14.0646Q1.13509 14.0432 1.20736 14.0288Q1.27964 14.0144 1.35297 14.0072Q1.42631 14 1.5 14L15.0735 14L15 1.50882Q14.9996 1.43513 15.0064 1.36176Q15.0132 1.28838 15.0271 1.21602Q15.0411 1.14367 15.0621 1.07302Q15.083 1.00238 15.1108 0.934137Q15.1386 0.865891 15.173 0.800699Q15.2073 0.735507 15.2479 0.673996Q15.2885 0.612485 15.3349 0.555247Q15.3813 0.49801 15.4331 0.445597Q15.4849 0.393185 15.5416 0.346102Q15.5983 0.299019 15.6593 0.257719Q15.7204 0.216419 15.7851 0.1813Q15.8499 0.146181 15.9178 0.117581Q15.9857 0.0889813 16.0561 0.0671757Q16.1265 0.0453701 16.1987 0.030569Q16.2709 0.0157678 16.3442 0.00811364Q16.4175 0.000459466 16.4912 2.59876e-05Q16.6389 -0.000843067 16.784 0.0271261Q16.929 0.0550953 17.0659 0.110828Q17.2027 0.166561 17.326 0.247915Q17.4493 0.329269 17.5544 0.433118Q17.6595 0.536968 17.7423 0.659322Q17.8251 0.781676 17.8824 0.917832Q17.9398 1.05399 17.9694 1.19872Q17.9991 1.34344 18 1.49118ZM80.0001 134.501L80.0001 56.5219Q79.9186 53.6546 80.5636 49.9101Q81.8724 42.3114 85.621 37.5803Q89.4283 32.7751 95.8075 30.9076Q98.9809 29.9786 101.461 30.0001L121.5 30Q121.574 30 121.647 30.0072Q121.72 30.0145 121.793 30.0288Q121.865 30.0432 121.936 30.0646Q122.006 30.086 122.074 30.1142Q122.142 30.1424 122.207 30.1771Q122.272 30.2119 122.333 30.2528Q122.395 30.2937 122.452 30.3405Q122.509 30.3872 122.561 30.4393Q122.613 30.4915 122.66 30.5484Q122.706 30.6054 122.747 30.6667Q122.788 30.7279 122.823 30.7929Q122.858 30.8579 122.886 30.926Q122.914 30.9941 122.936 31.0646Q122.957 31.1351 122.971 31.2074Q122.986 31.2797 122.993 31.353Q123 31.4263 123 31.5L123 61.5Q122.891 72.8408 117.972 80.0528Q114.741 84.7892 107.745 86.6194Q104.372 87.5018 101.495 87.5019L101.49 87.5018L91.0002 87.5018Q90.8547 87.5018 90.7119 87.4738Q90.5848 87.449 90.4639 87.4027Q90.343 87.3564 90.2319 87.2901Q90.1207 87.2238 90.0225 87.1394Q89.9244 87.0551 89.8421 86.9551Q89.7598 86.8552 89.6959 86.7426Q89.632 86.63 89.5883 86.5082Q89.5446 86.3863 89.5224 86.2588Q89.5002 86.1313 89.5002 86.0018Q89.5002 85.9281 89.5074 85.8548Q89.5147 85.7815 89.529 85.7092Q89.5434 85.6369 89.5648 85.5664Q89.5862 85.4959 89.6144 85.4278Q89.6426 85.3597 89.6773 85.2947Q89.7121 85.2297 89.753 85.1685Q89.794 85.1072 89.8407 85.0502Q89.8875 84.9933 89.9396 84.9412Q89.9917 84.8891 90.0486 84.8423Q90.1056 84.7956 90.1669 84.7546Q90.2281 84.7137 90.2931 84.6789Q90.3581 84.6442 90.4262 84.616Q90.4943 84.5878 90.5648 84.5664Q90.6353 84.545 90.7076 84.5306Q90.7799 84.5163 90.8532 84.509Q90.9265 84.5018 91.0002 84.5018L101.495 84.5019Q103.986 84.5019 106.986 83.7171Q112.896 82.1711 115.494 78.3623Q119.9 71.9021 120 61.5L120 33L101.435 33Q99.3983 32.9823 96.6504 33.7868Q91.187 35.3862 87.9724 39.4434Q84.699 43.5747 83.52 50.4193Q82.9236 53.8818 82.9995 56.4559Q83.0001 56.478 83.0001 56.5001L83.0001 134.501Q83.0001 134.574 82.9929 134.648Q82.9857 134.721 82.9713 134.793Q82.9569 134.865 82.9355 134.936Q82.9141 135.006 82.8859 135.075Q82.8577 135.143 82.823 135.208Q82.7883 135.273 82.7473 135.334Q82.7064 135.395 82.6596 135.452Q82.6129 135.509 82.5608 135.561Q82.5087 135.613 82.4517 135.66Q82.3948 135.707 82.3335 135.748Q82.2722 135.789 82.2072 135.823Q82.1422 135.858 82.0741 135.886Q82.0061 135.915 81.9356 135.936Q81.865 135.957 81.7928 135.972Q81.7205 135.986 81.6472 135.993Q81.5738 136.001 81.5001 136.001Q81.4264 136.001 81.3531 135.993Q81.2798 135.986 81.2075 135.972Q81.1352 135.957 81.0647 135.936Q80.9942 135.915 80.9261 135.886Q80.858 135.858 80.793 135.823Q80.728 135.789 80.6668 135.748Q80.6055 135.707 80.5485 135.66Q80.4916 135.613 80.4395 135.561Q80.3874 135.509 80.3406 135.452Q80.2939 135.395 80.2529 135.334Q80.212 135.273 80.1772 135.208Q80.1425 135.143 80.1143 135.075Q80.0861 135.006 80.0647 134.936Q80.0433 134.865 80.0289 134.793Q80.0146 134.721 80.0074 134.648Q80.0001 134.574 80.0001 134.501ZM66.1848 39.5058Q66.0659 39.5713 65.9339 39.6028Q65.8018 39.6342 65.6662 39.6293Q65.5305 39.6245 65.4011 39.5836Q65.2716 39.5427 65.1578 39.4688Q64.9474 39.3323 64.8263 39.1126Q63.924 37.4752 62.0896 35.8043Q58.462 32.5 53.9758 32.5Q48.1154 32.5 44.7382 37.6047Q41.0654 43.1561 44.4768 50.0974Q46.5686 54.3536 53.8075 56.9585Q54.5503 57.2258 55.3473 57.4757Q60.2616 59.0167 62.3903 60.4053Q66.0364 62.7837 67.4061 67.163Q70.2065 76.1168 66.0983 81.9214Q62.1503 87.5 53.9758 87.5Q47.2876 87.5 43.2198 81.7919Q41.2243 78.9918 40.5289 76.1617Q40.4814 75.9685 40.5115 75.7719Q40.5416 75.5753 40.6446 75.4051Q40.7476 75.235 40.9079 75.1172Q41.0682 74.9994 41.2614 74.952Q41.4624 74.9026 41.6666 74.9371Q41.8707 74.9715 42.0444 75.0842Q42.2044 75.1881 42.315 75.3436Q42.4256 75.4991 42.4711 75.6844Q43.0752 78.1428 44.8485 80.6312Q48.3182 85.5 53.9758 85.5Q61.1155 85.5 64.4658 80.7661Q68.0022 75.7692 65.4973 67.76Q64.342 64.0663 61.2976 62.0804Q59.4 60.8425 54.7489 59.3841Q53.6399 59.0364 52.6765 58.7011Q49.6694 57.6548 48.0812 56.7304Q44.4774 54.6331 42.6818 50.9795Q38.7646 43.009 43.0702 36.5011Q47.0405 30.5 53.9758 30.5Q59.2364 30.5 63.4364 34.3257Q65.5158 36.2197 66.578 38.1474Q66.6255 38.2336 66.6553 38.3275Q66.6851 38.4214 66.696 38.5193Q66.7069 38.6171 66.6985 38.7153Q66.6901 38.8134 66.6627 38.908Q66.6353 39.0026 66.59 39.0901Q66.5447 39.1775 66.4832 39.2544Q66.4217 39.3314 66.3464 39.3948Q66.271 39.4583 66.1848 39.5058ZM112.371 42.0981L92.3312 72.056Q92.2764 72.1379 92.2067 72.2075Q92.137 72.2771 92.0551 72.3318Q91.9732 72.3865 91.8822 72.4241Q91.7912 72.4617 91.6946 72.4809Q91.598 72.5001 91.4995 72.5Q91.401 72.5 91.3044 72.4807Q91.2078 72.4614 91.1168 72.4237Q91.0258 72.386 90.944 72.3312Q90.8621 72.2764 90.7925 72.2067Q90.7229 72.1371 90.6682 72.0551Q90.6136 71.9732 90.5759 71.8822Q90.5383 71.7912 90.5191 71.6946Q90.4999 71.598 90.5 71.4995Q90.5 71.401 90.5193 71.3044Q90.5386 71.2078 90.5763 71.1168Q90.6141 71.0259 90.6688 70.944L110.709 40.9861Q110.764 40.9042 110.833 40.8346Q110.903 40.765 110.985 40.7103Q111.067 40.6557 111.158 40.618Q111.249 40.5804 111.346 40.5612Q111.442 40.5421 111.541 40.5421Q111.639 40.5422 111.736 40.5614Q111.832 40.5807 111.923 40.6184Q112.014 40.6562 112.096 40.7109Q112.262 40.8215 112.372 40.987Q112.482 41.1524 112.521 41.3475Q112.56 41.5427 112.521 41.7377Q112.482 41.9328 112.371 42.0981ZM120.5 88C119.672 88 119 87.3284 119 86.5C119 85.6716 119.672 85 120.5 85C121.328 85 122 85.6716 122 86.5C122 87.3284 121.328 88 120.5 88ZM91.5 103L119.5 103Q119.574 103 119.647 102.993Q119.72 102.986 119.793 102.971Q119.865 102.957 119.935 102.935Q120.006 102.914 120.074 102.886Q120.142 102.858 120.207 102.823Q120.272 102.788 120.333 102.747Q120.395 102.706 120.452 102.66Q120.509 102.613 120.561 102.561Q120.613 102.509 120.66 102.452Q120.706 102.395 120.747 102.333Q120.788 102.272 120.823 102.207Q120.858 102.142 120.886 102.074Q120.914 102.006 120.935 101.935Q120.957 101.865 120.971 101.793Q120.986 101.72 120.993 101.647Q121 101.574 121 101.5Q121 101.426 120.993 101.353Q120.986 101.28 120.971 101.207Q120.957 101.135 120.935 101.065Q120.914 100.994 120.886 100.926Q120.858 100.858 120.823 100.793Q120.788 100.728 120.747 100.667Q120.706 100.605 120.66 100.548Q120.613 100.491 120.561 100.439Q120.509 100.387 120.452 100.34Q120.395 100.294 120.333 100.253Q120.272 100.212 120.207 100.177Q120.142 100.142 120.074 100.114Q120.006 100.086 119.935 100.065Q119.865 100.043 119.793 100.029Q119.72 100.014 119.647 100.007Q119.574 100 119.5 100L91.5 100Q91.4263 100 91.353 100.007Q91.2796 100.014 91.2074 100.029Q91.1351 100.043 91.0646 100.065Q90.9941 100.086 90.926 100.114Q90.8579 100.142 90.7929 100.177Q90.7279 100.212 90.6666 100.253Q90.6054 100.294 90.5484 100.34Q90.4915 100.387 90.4393 100.439Q90.3872 100.491 90.3405 100.548Q90.2937 100.605 90.2528 100.667Q90.2119 100.728 90.1771 100.793Q90.1424 100.858 90.1142 100.926Q90.086 100.994 90.0646 101.065Q90.0432 101.135 90.0288 101.207Q90.0145 101.28 90.0072 101.353Q90 101.426 90 101.5Q90 101.574 90.0072 101.647Q90.0145 101.72 90.0288 101.793Q90.0432 101.865 90.0646 101.935Q90.086 102.006 90.1142 102.074Q90.1424 102.142 90.1771 102.207Q90.2118 102.272 90.2528 102.333Q90.2937 102.395 90.3405 102.452Q90.3872 102.509 90.4393 102.561Q90.4914 102.613 90.5484 102.66Q90.6054 102.706 90.6666 102.747Q90.7279 102.788 90.7929 102.823Q90.8579 102.858 90.926 102.886Q90.994 102.914 91.0646 102.935Q91.1351 102.957 91.2074 102.971Q91.2796 102.986 91.353 102.993Q91.4263 103 91.5 103ZM91.5 112.5L119.5 112.5Q119.598 112.5 119.695 112.481Q119.792 112.462 119.883 112.424Q119.974 112.386 120.056 112.331Q120.137 112.277 120.207 112.207Q120.277 112.137 120.331 112.056Q120.386 111.974 120.424 111.883Q120.462 111.792 120.481 111.695Q120.5 111.598 120.5 111.5Q120.5 111.402 120.481 111.305Q120.462 111.208 120.424 111.117Q120.386 111.026 120.331 110.944Q120.277 110.863 120.207 110.793Q120.137 110.723 120.056 110.669Q119.974 110.614 119.883 110.576Q119.792 110.538 119.695 110.519Q119.598 110.5 119.5 110.5L91.5 110.5Q91.4015 110.5 91.3049 110.519Q91.2083 110.538 91.1173 110.576Q91.0263 110.614 90.9444 110.669Q90.8625 110.723 90.7929 110.793Q90.7233 110.863 90.6685 110.944Q90.6138 111.026 90.5761 111.117Q90.5384 111.208 90.5192 111.305Q90.5 111.402 90.5 111.5Q90.5 111.598 90.5192 111.695Q90.5384 111.792 90.5761 111.883Q90.6138 111.974 90.6685 112.056Q90.7232 112.137 90.7929 112.207Q90.8625 112.277 90.9444 112.331Q91.0263 112.386 91.1173 112.424Q91.2083 112.462 91.3049 112.481Q91.4015 112.5 91.5 112.5Z" fill="#000000" fill-rule="evenodd" />
</svg>